<?xml version="1.0" encoding="utf-8"?>
<!-- Generator: Adobe Illustrator 26.3.1, SVG Export Plug-In . SVG Version: 6.00 Build 0)  -->
<svg version="1.1" id="Layer_1" xmlns="http://www.w3.org/2000/svg" xmlns:xlink="http://www.w3.org/1999/xlink" x="0px" y="0px"
	 viewBox="0 0 40 40" enable-background="new 0 0 40 40" xml:space="preserve">
<path fill="#FFCDD2" d="M9.167,12.5l-3.333,1.667V17.5V20v3.333L5,25.833L7.5,30l6.667,4.167H20L25.833,35l5.833-3.333L35,25v-6.667
	L33.333,15l-5,0.833L24.167,15l-2.5,3.333L20.833,17.5L17.5,14.167L14.167,12.5h-2.5H9.167z"/>
<path fill="#D60000" d="M36.349,16.083c-0.103-0.55-0.316-1.074-0.624-1.541c-0.309-0.467-0.708-0.868-1.174-1.178
	c-0.466-0.311-0.989-0.525-1.539-0.63c-0.55-0.105-1.115-0.1-1.663,0.017c-1.073,0.346-2.061,0.914-2.9,1.667
	c-0.638-0.881-1.595-1.479-2.667-1.667c-0.87-0.174-1.774-0.046-2.562,0.363c-0.788,0.409-1.413,1.075-1.771,1.887
	c-0.333,0.733-0.55,0.533-0.967,0.1c-1.3-1.317-2.617-2.667-3.967-3.933c-0.34-0.37-0.754-0.666-1.214-0.868
	s-0.958-0.307-1.461-0.307c-0.503,0-1,0.104-1.461,0.307c-0.46,0.202-0.874,0.498-1.214,0.868c-0.317,0.3-0.517,0.433-0.967,0.233
	c-0.614-0.325-1.313-0.456-2.003-0.376c-0.69,0.08-1.34,0.368-1.863,0.826c-0.595,0.431-1.043,1.035-1.281,1.73
	c-0.239,0.695-0.257,1.447-0.052,2.153c0.05,0.157,0.05,0.326,0,0.483c-0.053,0.158-0.152,0.297-0.283,0.4
	C4.3,16.941,3.96,17.352,3.717,17.82c-0.243,0.468-0.381,0.984-0.407,1.51c-0.025,0.527,0.063,1.053,0.26,1.542
	c0.197,0.489,0.496,0.931,0.879,1.294c0.333,0.383,0.417,0.533,0,0.95c-0.351,0.322-0.633,0.711-0.83,1.144
	c-0.197,0.433-0.305,0.902-0.318,1.377c-0.012,0.476,0.071,0.949,0.245,1.392c0.174,0.443,0.436,0.846,0.769,1.186
	c1.789,1.95,3.686,3.798,5.683,5.533c1.361,1.16,2.973,1.985,4.71,2.41c1.736,0.425,3.548,0.439,5.29,0.04
	c8.75,1.833,15-3.333,16.167-8.2C36.881,24.065,36.943,20.039,36.349,16.083z M12.333,31.667c-1.928-1.683-3.769-3.463-5.517-5.333
	c-0.333-0.317-0.45-0.717,0-1.067s0.7-0.1,0.983,0.183c0.683,0.683,1.35,1.383,2.05,2.05c0.7,0.667,1.783,0.9,2.467,0.183
	c0.145-0.173,0.254-0.373,0.32-0.589c0.065-0.216,0.086-0.443,0.061-0.668c-0.025-0.224-0.095-0.441-0.207-0.638
	c-0.111-0.197-0.261-0.368-0.441-0.505l-4.833-4.85c-0.367-0.367-1.033-0.75-0.417-1.35c0.617-0.6,0.967,0.15,1.333,0.5
	c1.533,1.483,3.033,3.017,4.55,4.533c0.272,0.266,0.567,0.506,0.883,0.717c0.275,0.19,0.609,0.273,0.941,0.233
	c0.332-0.04,0.637-0.2,0.859-0.45c0.252-0.219,0.417-0.52,0.467-0.85c0.05-0.328-0.015-0.664-0.183-0.95
	c-0.225-0.355-0.494-0.679-0.8-0.967l-6.3-6.233c-0.333-0.333-0.783-0.733-0.3-1.2c0.483-0.467,0.883,0,1.233,0.333l6.067,6.083
	c0.2,0.2,0.383,0.4,0.6,0.583c0.311,0.3,0.726,0.468,1.158,0.468c0.432,0,0.848-0.168,1.158-0.468
	c0.249-0.32,0.374-0.72,0.349-1.125c-0.024-0.405-0.196-0.787-0.482-1.075c-0.633-0.683-1.317-1.317-1.967-1.983l-2.783-2.783
	c-0.25-0.333-0.533-0.7-0.15-1.117c0.383-0.417,0.75-0.15,1.083,0.183c2.083,2.117,4.2,4.2,6.317,6.3
	c0.251,0.284,0.537,0.536,0.85,0.75c0.208,0.161,0.456,0.262,0.717,0.293s0.525-0.01,0.765-0.118
	c0.24-0.108,0.445-0.279,0.595-0.495c0.15-0.216,0.239-0.468,0.256-0.73c0.078-0.859,0.106-1.721,0.083-2.583
	c0-0.7,0.283-1.25,1.083-1.217c0.8,0.033,0.967,0.567,0.967,1.217v4.817c0.097,1.885-0.06,3.774-0.467,5.617
	c-0.426,1.3-1.153,2.481-2.123,3.446c-0.97,0.965-2.154,1.687-3.456,2.106c-1.302,0.419-2.685,0.525-4.036,0.307
	C14.717,33.008,13.437,32.474,12.333,31.667z M33.333,24.45c0.042,1.457-0.288,2.902-0.958,4.196
	c-0.671,1.295-1.66,2.397-2.875,3.204c-1.409,0.657-2.863,1.214-4.35,1.667c1.533-1.343,2.683-3.068,3.333-5
	c0.635-2.332,0.849-4.759,0.633-7.167c0-1.317,0-2.633,0-3.95c0.65-0.778,1.553-1.302,2.55-1.483c1.417-0.167,1.817,0.2,1.817,1.667
	C33.416,19.833,33.416,22.15,33.333,24.45z"/>
<path fill="#D60000" d="M23.566,6.317c0-0.617,0-1.25,0-1.85s0.35-1.133,1.067-1.133c0.139-0.006,0.277,0.019,0.405,0.071
	c0.128,0.053,0.244,0.132,0.339,0.233c0.095,0.101,0.167,0.222,0.211,0.353c0.044,0.131,0.06,0.271,0.045,0.409
	c0,1.35,0,2.683,0,4.017c0.017,0.139,0.004,0.281-0.039,0.414c-0.043,0.134-0.115,0.256-0.21,0.359
	c-0.095,0.103-0.212,0.184-0.341,0.238c-0.13,0.054-0.269,0.078-0.41,0.072c-0.717,0-1.033-0.433-1.067-1.117
	C23.533,7.7,23.566,7,23.566,6.317z"/>
<path fill="#D60000" d="M20.416,9.5c-0.191-0.016-0.374-0.079-0.534-0.184c-0.16-0.105-0.292-0.248-0.382-0.416
	c-0.633-0.933-1.267-1.867-1.883-2.833c-0.1-0.109-0.174-0.238-0.216-0.379c-0.043-0.141-0.053-0.29-0.031-0.435
	c0.022-0.146,0.077-0.284,0.16-0.406c0.083-0.122,0.193-0.223,0.32-0.296c0.111-0.083,0.239-0.141,0.375-0.169
	c0.136-0.028,0.276-0.026,0.411,0.005c0.135,0.032,0.261,0.093,0.37,0.179c0.109,0.086,0.198,0.195,0.26,0.318
	c0.7,0.983,1.383,1.983,2,3.017c0.114,0.152,0.183,0.333,0.198,0.523c0.015,0.19-0.024,0.38-0.114,0.547
	c-0.089,0.168-0.224,0.307-0.39,0.401C20.795,9.465,20.606,9.51,20.416,9.5z"/>
<path fill="#D60000" d="M28.849,9.5c-0.733,0-1.333-0.683-1.05-1.233c0.643-1.335,1.468-2.574,2.45-3.683
	c0.074-0.075,0.163-0.134,0.26-0.174c0.097-0.04,0.201-0.061,0.307-0.061c0.105,0,0.21,0.021,0.307,0.061
	c0.097,0.04,0.186,0.1,0.26,0.174c0.383,0.267,0.617,0.667,0.4,1.067c-0.67,1.314-1.492,2.545-2.45,3.667
	C29.216,9.433,28.966,9.45,28.849,9.5z"/>
</svg>
