<?xml version="1.0" encoding="utf-8"?>
<!-- Generator: Adobe Illustrator 26.3.1, SVG Export Plug-In . SVG Version: 6.00 Build 0)  -->
<svg version="1.1" id="Layer_1" xmlns="http://www.w3.org/2000/svg" xmlns:xlink="http://www.w3.org/1999/xlink" x="0px" y="0px"
	 viewBox="0 0 40 40" enable-background="new 0 0 40 40" xml:space="preserve">
<circle fill="#FFCDD2" cx="20.001" cy="20" r="16.667"/>
<path fill="#D60000" d="M25.834,18.333c0.722,0,1.319-0.236,1.792-0.708c0.472-0.472,0.708-1.069,0.708-1.792
	c0-0.722-0.236-1.319-0.708-1.792c-0.472-0.472-1.069-0.708-1.792-0.708s-1.319,0.236-1.792,0.708
	c-0.472,0.472-0.708,1.069-0.708,1.792c0,0.722,0.236,1.319,0.708,1.792C24.514,18.097,25.112,18.333,25.834,18.333z M14.167,18.333
	c0.722,0,1.319-0.236,1.792-0.708c0.472-0.472,0.708-1.069,0.708-1.792c0-0.722-0.236-1.319-0.708-1.792
	c-0.472-0.472-1.069-0.708-1.792-0.708c-0.722,0-1.319,0.236-1.792,0.708c-0.472,0.472-0.708,1.069-0.708,1.792
	c0,0.722,0.236,1.319,0.708,1.792C12.848,18.097,13.445,18.333,14.167,18.333z M20.001,29.167c1.583,0,3.028-0.354,4.333-1.062
	c1.306-0.708,2.319-1.604,3.042-2.688c0.333-0.5,0.382-0.972,0.146-1.417c-0.236-0.444-0.604-0.667-1.104-0.667
	c-0.194,0-0.389,0.056-0.583,0.167c-0.194,0.111-0.347,0.25-0.458,0.417c-0.611,0.833-1.375,1.5-2.292,2s-1.944,0.75-3.083,0.75
	c-1.139,0-2.167-0.25-3.083-0.75c-0.917-0.5-1.68-1.167-2.292-2c-0.111-0.167-0.271-0.306-0.479-0.417
	c-0.208-0.111-0.41-0.167-0.604-0.167c-0.472,0-0.826,0.215-1.062,0.646c-0.236,0.431-0.201,0.882,0.104,1.354
	c0.75,1.139,1.778,2.062,3.083,2.771C16.973,28.812,18.417,29.167,20.001,29.167z M20.001,36.667c-2.306,0-4.472-0.438-6.5-1.312
	c-2.028-0.875-3.792-2.062-5.292-3.562S5.521,28.528,4.646,26.5S3.334,22.306,3.334,20c0-2.306,0.438-4.472,1.312-6.5
	s2.062-3.792,3.562-5.292s3.264-2.687,5.292-3.562c2.028-0.875,4.194-1.313,6.5-1.313c2.306,0,4.472,0.438,6.5,1.313
	c2.028,0.875,3.792,2.062,5.292,3.562c1.5,1.5,2.688,3.264,3.563,5.292s1.312,4.195,1.312,6.5c0,2.306-0.438,4.472-1.312,6.5
	s-2.062,3.792-3.563,5.292c-1.5,1.5-3.264,2.688-5.292,3.562C24.473,36.229,22.306,36.667,20.001,36.667z M20.001,33.333
	c3.694,0,6.84-1.299,9.438-3.896c2.597-2.597,3.896-5.743,3.896-9.438c0-3.694-1.299-6.84-3.896-9.438
	c-2.597-2.597-5.743-3.896-9.438-3.896c-3.694,0-6.84,1.299-9.438,3.896C7.966,13.16,6.667,16.306,6.667,20
	c0,3.694,1.299,6.84,3.896,9.438C13.16,32.035,16.306,33.333,20.001,33.333z"/>
</svg>
